<?xml version="1.0" standalone="no"?>
<!DOCTYPE svg PUBLIC "-//W3C//DTD SVG 20010904//EN"
 "http://www.w3.org/TR/2001/REC-SVG-20010904/DTD/svg10.dtd">
<svg version="1.0" xmlns="http://www.w3.org/2000/svg"
 width="3334.000000pt" height="3334.000000pt" viewBox="0 0 3334.000000 3334.000000"
 preserveAspectRatio="xMidYMid meet">

<g transform="translate(0.000000,3334.000000) scale(0.100000,-0.100000)"
fill="#000000" stroke="none">
<path d="M13200 23879 c-30 -5 -99 -25 -153 -43 -238 -82 -436 -257 -544 -482
-236 -495 -4 -1090 507 -1301 208 -86 483 -84 712 5 205 79 392 250 490 447
67 133 102 290 102 455 0 147 -22 245 -84 378 -127 270 -386 477 -672 536 -84
17 -266 20 -358 5z"/>
<path d="M9843 23847 c-42 -9 -71 -31 -84 -66 -6 -14 -10 -1911 -10 -4708 0
-3791 3 -4689 13 -4710 7 -14 26 -36 41 -47 28 -21 40 -21 640 -27 389 -4 627
-3 652 3 46 11 71 31 92 73 14 27 16 510 16 4705 0 4217 -1 4678 -15 4705 -20
37 -45 60 -78 70 -33 10 -1219 12 -1267 2z"/>
<path d="M5895 20773 c-661 -57 -1228 -286 -1730 -698 -414 -340 -710 -702
-915 -1119 -130 -266 -205 -483 -260 -756 -52 -260 -64 -380 -64 -675 0 -282
10 -397 55 -625 271 -1378 1365 -2404 2769 -2597 174 -24 556 -23 735 1 714
97 1271 364 1903 914 70 61 160 144 200 185 63 65 72 80 72 111 0 21 -6 49
-14 64 -25 47 -908 920 -939 927 -52 13 -80 -3 -172 -103 -285 -308 -516 -468
-820 -570 -618 -206 -1278 -52 -1763 413 -177 170 -305 344 -407 557 -108 226
-153 408 -162 654 -6 173 4 290 39 453 95 446 389 870 778 1124 313 203 643
296 1015 284 495 -17 866 -195 1285 -620 130 -132 166 -156 212 -138 31 12
818 891 883 987 29 43 32 87 8 132 -23 42 -322 306 -490 434 -512 385 -1066
601 -1693 658 -106 9 -430 11 -525 3z"/>
<path d="M12210 20767 c-50 -26 -50 -16 -50 -733 l0 -671 23 -34 c36 -53 83
-61 330 -55 139 3 216 1 232 -6 59 -27 55 143 55 -2462 0 -1679 3 -2400 11
-2436 18 -86 -24 -81 723 -83 732 -2 694 -6 716 70 8 27 10 951 8 3200 l-3
3163 -28 27 -27 28 -983 2 c-775 2 -987 0 -1007 -10z"/>
<path d="M17800 20769 c-550 -47 -1041 -214 -1470 -501 -234 -156 -432 -326
-614 -527 -497 -549 -747 -1045 -852 -1686 -22 -136 -31 -656 -14 -849 38
-450 150 -817 371 -1219 415 -753 1053 -1285 1867 -1556 711 -237 1541 -187
2238 132 384 177 782 458 1120 792 126 124 142 151 123 203 -14 36 -894 927
-935 947 -21 10 -43 13 -57 9 -12 -4 -96 -82 -187 -174 -101 -103 -204 -197
-267 -243 -557 -410 -1210 -468 -1812 -162 -534 271 -854 670 -969 1205 -50
228 -55 550 -13 763 93 468 364 849 813 1144 446 293 943 355 1473 182 297
-96 535 -255 812 -543 119 -123 132 -132 186 -128 29 3 55 28 173 162 60 69
244 278 410 466 166 187 309 354 318 372 20 39 21 84 1 121 -17 35 -176 186
-310 296 -552 453 -1095 699 -1726 780 -147 19 -530 27 -679 14z"/>
<path d="M25137 18615 c-20 -7 -150 -97 -289 -202 -139 -104 -365 -272 -502
-373 -292 -216 -326 -245 -326 -286 0 -50 -128 122 1285 -1729 512 -671 1002
-1313 1088 -1427 86 -113 176 -223 199 -242 78 -67 61 -66 870 -66 635 0 738
2 801 16 40 9 73 18 75 19 10 9 -55 136 -99 198 -29 40 -294 401 -589 802
-583 794 -1443 1971 -1994 2730 -192 264 -365 497 -385 518 -45 46 -85 59
-134 42z"/>
<path d="M22580 16717 c-19 -6 -240 -165 -490 -352 -250 -188 -516 -385 -590
-439 -159 -116 -204 -157 -233 -211 -22 -40 -22 -42 -22 -700 0 -514 3 -665
13 -682 23 -42 60 -44 704 -41 670 3 655 2 680 62 10 25 13 249 13 1166 0
1063 -1 1137 -18 1173 -9 20 -18 37 -20 36 -1 -1 -18 -6 -37 -12z"/>
</g>
</svg>
